<svg xmlns="http://www.w3.org/2000/svg" xmlns:xlink="http://www.w3.org/1999/xlink" width="500px" zoomAndPan="magnify" viewBox="0 0 375 374.999991" height="500px" preserveAspectRatio="xMidYMid meet" version="1.0"><defs><g/></defs><g fill="#282642" fill-opacity="1"><g transform="translate(30.203923, 226.351407)"><g><path d="M 242.921875 1.84375 C 243.054688 1.90625 243.195312 2.023438 243.34375 2.203125 C 243.488281 2.378906 243.5625 2.582031 243.5625 2.8125 C 243.5625 3.164062 243.453125 3.445312 243.234375 3.65625 C 243.023438 3.863281 242.773438 3.96875 242.484375 3.96875 L 241.53125 3.875 C 241.394531 3.9375 241.296875 3.96875 241.234375 3.96875 C 223.335938 2.96875 205.695312 2.363281 188.3125 2.15625 C 170.9375 1.945312 153.414062 1.875 135.75 1.9375 C 132.851562 1.9375 129.984375 1.9375 127.140625 1.9375 C 125.367188 1.9375 123.9375 2.273438 122.84375 2.953125 C 121.75 3.628906 120.8125 4.820312 120.03125 6.53125 C 115.488281 16.875 110.847656 27.191406 106.109375 37.484375 C 103.523438 43.085938 100.960938 48.695312 98.421875 54.3125 C 96.578125 58.40625 94.769531 62.546875 93 66.734375 C 92.0625 68.796875 91.175781 70.863281 90.34375 72.9375 C 90.28125 73.125 90.164062 73.332031 90 73.5625 C 89.875 74.144531 89.632812 74.675781 89.28125 75.15625 C 88.695312 75.632812 87.945312 75.914062 87.03125 76 C 86.113281 76.082031 85.316406 75.90625 84.640625 75.46875 C 83.960938 75.03125 83.765625 74.28125 84.046875 73.21875 C 84.691406 71.445312 85.40625 69.722656 86.1875 68.046875 C 92.988281 52.503906 99.835938 36.960938 106.734375 21.421875 C 108.347656 17.816406 109.976562 14.160156 111.625 10.453125 C 111.84375 9.898438 112.082031 9.300781 112.34375 8.65625 C 112.925781 7.363281 113.507812 6.09375 114.09375 4.84375 C 114.632812 3.414062 114.28125 2.625 113.03125 2.46875 C 104 2.695312 95.015625 3.097656 86.078125 3.671875 C 81.410156 3.929688 76.691406 4.175781 71.921875 4.40625 C 69.242188 4.46875 67.375 5.738281 66.3125 8.21875 C 61.632812 18.3125 56.765625 28.320312 51.703125 38.25 C 48.734375 44.125 45.71875 50.007812 42.65625 55.90625 C 41.53125 58.03125 40.398438 60.160156 39.265625 62.296875 C 38.617188 63.648438 37.910156 64.921875 37.140625 66.109375 C 36.367188 67.171875 35.320312 67.820312 34 68.0625 C 32.675781 68.3125 31.519531 68.238281 30.53125 67.84375 C 29.550781 67.457031 29.09375 66.847656 29.15625 66.015625 C 29.507812 64.367188 30.007812 62.804688 30.65625 61.328125 C 35.75 48.265625 41.3125 35.429688 47.34375 22.828125 C 49.46875 18.347656 51.597656 13.863281 53.734375 9.375 C 54.304688 7.957031 53.914062 7.160156 52.5625 6.984375 C 51.207031 6.804688 49.226562 6.863281 46.625 7.15625 C 46.5625 7.15625 46.445312 7.15625 46.28125 7.15625 C 41.738281 7.570312 37.070312 8.207031 32.28125 9.0625 C 27.488281 9.914062 24.351562 10.554688 22.875 10.984375 C 21.394531 11.335938 19.878906 11.515625 18.328125 11.515625 C 18.234375 11.609375 18.117188 11.65625 17.984375 11.65625 C 17.859375 11.65625 17.71875 11.609375 17.5625 11.515625 L 16.734375 11.65625 C 16.441406 11.65625 16.148438 11.539062 15.859375 11.3125 C 15.566406 11.09375 15.421875 10.804688 15.421875 10.453125 C 15.492188 10.253906 15.617188 10.007812 15.796875 9.71875 C 15.972656 9.425781 16.171875 9.21875 16.390625 9.09375 C 22.066406 7.09375 27.851562 5.707031 33.75 4.9375 C 40.488281 3.9375 47.226562 3.082031 53.96875 2.375 C 56.226562 2.300781 57.828125 1.269531 58.765625 -0.71875 C 60.722656 -4.75 62.769531 -8.78125 64.90625 -12.8125 C 67.445312 -17.582031 70.039062 -22.335938 72.6875 -27.078125 C 73.59375 -28.859375 74.515625 -30.632812 75.453125 -32.40625 C 75.578125 -32.5625 75.6875 -32.738281 75.78125 -32.9375 C 76.039062 -33.519531 76.347656 -34.050781 76.703125 -34.53125 C 78.472656 -36.59375 79.960938 -38.832031 81.171875 -41.25 C 82.378906 -43.664062 83.484375 -46.148438 84.484375 -48.703125 C 84.972656 -49.765625 85.441406 -50.828125 85.890625 -51.890625 C 94.460938 -71.234375 102.925781 -90.628906 111.28125 -110.078125 C 115.113281 -118.585938 118.066406 -127.359375 120.140625 -136.390625 C 120.972656 -139.640625 121.179688 -142.894531 120.765625 -146.15625 C 120.347656 -148.050781 119.101562 -149.039062 117.03125 -149.125 C 114.96875 -149.207031 112.46875 -148.675781 109.53125 -147.53125 C 106.601562 -146.382812 103.554688 -144.992188 100.390625 -143.359375 C 97.234375 -141.734375 94.378906 -140.140625 91.828125 -138.578125 C 89.285156 -137.015625 87.40625 -135.847656 86.1875 -135.078125 C 85.832031 -134.878906 85.585938 -134.734375 85.453125 -134.640625 C 52.179688 -113.941406 22.390625 -89.082031 -3.921875 -60.0625 C -6.816406 -56.875 -9.59375 -53.578125 -12.25 -50.171875 C -14.914062 -46.773438 -17.363281 -43.191406 -19.59375 -39.421875 C -21.269531 -36.578125 -22.601562 -33.609375 -23.59375 -30.515625 C -24.820312 -25.742188 -24.476562 -22.097656 -22.5625 -19.578125 C -20.644531 -17.066406 -17.765625 -15.382812 -13.921875 -14.53125 C -10.085938 -13.675781 -5.921875 -13.378906 -1.421875 -13.640625 C 3.066406 -13.898438 7.300781 -14.359375 11.28125 -15.015625 C 15.269531 -15.679688 18.359375 -16.332031 20.546875 -16.96875 C 23.160156 -17.613281 25.789062 -18.226562 28.4375 -18.8125 C 30.695312 -19.226562 31.328125 -19.082031 30.328125 -18.375 C 29.328125 -17.664062 27.164062 -16.691406 23.84375 -15.453125 C 20.519531 -14.210938 16.53125 -13.003906 11.875 -11.828125 C 7.21875 -10.648438 2.40625 -9.8125 -2.5625 -9.3125 C -7.53125 -8.8125 -12.1875 -8.914062 -16.53125 -9.625 C -20.882812 -10.332031 -24.429688 -11.953125 -27.171875 -14.484375 C -29.921875 -17.015625 -31.328125 -20.765625 -31.390625 -25.734375 C -31.390625 -25.859375 -31.390625 -25.984375 -31.390625 -26.109375 C -31.222656 -29.242188 -30.476562 -32.226562 -29.15625 -35.0625 C -26.9375 -40.1875 -24.101562 -44.941406 -20.65625 -49.328125 C -17.007812 -54.066406 -13.203125 -58.644531 -9.234375 -63.0625 C 16.296875 -91.082031 45.054688 -115.265625 77.046875 -135.609375 C 80.816406 -138.023438 85.195312 -140.664062 90.1875 -143.53125 C 95.1875 -146.40625 100.332031 -148.816406 105.625 -150.765625 C 110.914062 -152.722656 115.863281 -153.601562 120.46875 -153.40625 C 125.5625 -153.113281 128.351562 -150.453125 128.84375 -145.421875 C 129.0625 -143.554688 129.050781 -141.734375 128.8125 -139.953125 C 128.570312 -138.179688 128.226562 -136.410156 127.78125 -134.640625 C 127.707031 -134.378906 127.640625 -134.101562 127.578125 -133.8125 C 126.640625 -129.5625 125.429688 -125.410156 123.953125 -121.359375 C 122.472656 -117.316406 120.878906 -113.3125 119.171875 -109.34375 C 104.628906 -74.78125 89.410156 -40.554688 73.515625 -6.671875 C 73.023438 -5.671875 72.570312 -4.640625 72.15625 -3.578125 C 71.445312 -1.929688 71.519531 -0.789062 72.375 -0.15625 C 73.226562 0.46875 74.660156 0.78125 76.671875 0.78125 C 78.691406 0.78125 81.054688 0.679688 83.765625 0.484375 C 84.179688 0.484375 84.597656 0.4375 85.015625 0.34375 C 86.796875 0.269531 88.601562 0.171875 90.4375 0.046875 C 98.59375 -0.597656 106.6875 -1.03125 114.71875 -1.25 C 116.132812 -1.25 117.117188 -1.847656 117.671875 -3.046875 C 118.316406 -4.335938 118.925781 -5.644531 119.5 -6.96875 C 129.976562 -30.019531 140.875 -52.859375 152.1875 -75.484375 C 163.507812 -98.117188 174.988281 -120.675781 186.625 -143.15625 C 186.757812 -143.445312 186.90625 -143.738281 187.0625 -144.03125 C 187.488281 -145.09375 188.117188 -145.976562 188.953125 -146.6875 C 189.597656 -147.039062 190.347656 -147.21875 191.203125 -147.21875 C 192.054688 -147.21875 192.78125 -147.023438 193.375 -146.640625 C 193.96875 -146.253906 194.085938 -145.5625 193.734375 -144.5625 C 193.671875 -144.332031 193.578125 -144.085938 193.453125 -143.828125 C 192.515625 -141.410156 191.484375 -139.023438 190.359375 -136.671875 C 184.617188 -125.128906 178.832031 -113.601562 173 -102.09375 C 170.96875 -98 168.914062 -93.890625 166.84375 -89.765625 C 153.3125 -62.742188 140.046875 -35.578125 127.046875 -8.265625 C 126.816406 -7.753906 126.578125 -7.253906 126.328125 -6.765625 C 126.035156 -6.191406 125.773438 -5.628906 125.546875 -5.078125 C 124.773438 -3.367188 124.726562 -2.265625 125.40625 -1.765625 C 126.082031 -1.265625 127.160156 -1.09375 128.640625 -1.25 C 144.179688 -2.09375 160.019531 -2.28125 176.15625 -1.8125 C 192.289062 -1.34375 208.304688 -0.691406 224.203125 0.140625 C 229.078125 0.367188 233.929688 0.613281 238.765625 0.875 C 238.992188 0.875 239.171875 0.875 239.296875 0.875 C 239.941406 0.875 240.578125 0.925781 241.203125 1.03125 C 241.835938 1.144531 242.410156 1.414062 242.921875 1.84375 Z M 242.921875 1.84375 "/></g></g></g><g fill="#282642" fill-opacity="1"><g transform="translate(183.384946, 226.351407)"><g><path d="M 35.078125 -24.640625 C 35.835938 -24.203125 35.894531 -23.144531 35.25 -21.46875 C 34.320312 -20.25 33.320312 -19.101562 32.25 -18.03125 C 31.1875 -16.96875 30.03125 -16.019531 28.78125 -15.1875 C 28.675781 -15.1875 28.625 -15.15625 28.625 -15.09375 C 27.789062 -14.507812 26.90625 -14.007812 25.96875 -13.59375 C 18.257812 -10.820312 14.328125 -12.445312 14.171875 -18.46875 C 11.046875 -15.757812 8.953125 -14.101562 7.890625 -13.5 C 5.335938 -11.976562 2.578125 -11.300781 -0.390625 -11.46875 C -2.578125 -11.59375 -4.066406 -12.257812 -4.859375 -13.46875 C -5.648438 -14.675781 -5.578125 -16.3125 -4.640625 -18.375 C -3.222656 -21.632812 -1.207031 -24.535156 1.40625 -27.078125 C 4.46875 -29.921875 7.867188 -32.195312 11.609375 -33.90625 C 13.609375 -34.90625 15.703125 -35.289062 17.890625 -35.0625 C 20.085938 -34.9375 21.410156 -33.695312 21.859375 -31.34375 C 22.054688 -30.632812 21.878906 -30.003906 21.328125 -29.453125 C 20.617188 -28.804688 19.796875 -28.660156 18.859375 -29.015625 C 18.796875 -29.015625 18.707031 -29.03125 18.59375 -29.0625 C 18.476562 -29.09375 18.390625 -29.144531 18.328125 -29.21875 C 17.390625 -30.5 16.445312 -31.035156 15.5 -30.828125 C 14.550781 -30.617188 13.546875 -30.191406 12.484375 -29.546875 C 7.515625 -26.648438 3.820312 -22.601562 1.40625 -17.40625 C 1.269531 -17.1875 1.1875 -16.9375 1.15625 -16.65625 C 1.125 -16.382812 1.207031 -16.171875 1.40625 -16.015625 C 1.976562 -15.816406 2.617188 -15.851562 3.328125 -16.125 C 4.046875 -16.40625 4.757812 -16.8125 5.46875 -17.34375 C 6.175781 -17.875 6.769531 -18.316406 7.25 -18.671875 C 7.3125 -18.765625 7.34375 -18.8125 7.34375 -18.8125 C 9.695312 -20.78125 12.003906 -22.796875 14.265625 -24.859375 C 15.265625 -25.921875 16.503906 -26.515625 17.984375 -26.640625 C 20.117188 -26.640625 21.007812 -25.691406 20.65625 -23.796875 C 20.457031 -23.085938 20.242188 -22.378906 20.015625 -21.671875 C 19.179688 -18.609375 19.148438 -16.804688 19.921875 -16.265625 C 20.703125 -15.734375 21.890625 -15.734375 23.484375 -16.265625 C 25.078125 -16.804688 26.671875 -17.820312 28.265625 -19.3125 C 29.859375 -20.8125 31.203125 -22.179688 32.296875 -23.421875 C 33.398438 -24.671875 34.328125 -25.078125 35.078125 -24.640625 Z M 35.078125 -24.640625 "/></g></g></g><g fill="#282642" fill-opacity="1"><g transform="translate(215.442716, 226.351407)"><g><path d="M 23.40625 -24.515625 C 18.3125 -22.617188 14.632812 -21.070312 12.375 -19.875 C 10.738281 -19.070312 9.796875 -18.40625 9.546875 -17.875 C 9.304688 -17.34375 9.492188 -16.363281 10.109375 -14.9375 C 10.109375 -14.875 10.15625 -14.78125 10.25 -14.65625 C 10.957031 -12.945312 11.378906 -11.171875 11.515625 -9.328125 C 11.734375 -5.617188 8.578125 -3.023438 2.046875 -1.546875 C -4.472656 -0.0664062 -8.835938 -0.0195312 -11.046875 -1.40625 C -13.253906 -2.789062 -13.929688 -4.546875 -13.078125 -6.671875 C -12.222656 -8.796875 -10.003906 -10.953125 -6.421875 -13.140625 C -2.847656 -15.335938 -0.457031 -16.921875 0.75 -17.890625 C 1.957031 -18.859375 2.320312 -19.941406 1.84375 -21.140625 C 1.675781 -21.554688 1.5 -21.972656 1.3125 -22.390625 C 0.882812 -23.390625 0.445312 -24.421875 0 -25.484375 C -0.832031 -27.421875 -1.191406 -29.320312 -1.078125 -31.1875 C -0.972656 -33.0625 -0.285156 -34.632812 0.984375 -35.90625 C 2.265625 -37.175781 4.242188 -37.863281 6.921875 -37.96875 C 8.429688 -38.03125 9.78125 -37.828125 10.96875 -37.359375 C 12.164062 -36.890625 13.117188 -36.023438 13.828125 -34.765625 C 14.410156 -33.898438 14.234375 -33.113281 13.296875 -32.40625 C 12.679688 -31.914062 12.019531 -31.847656 11.3125 -32.203125 C 10.863281 -32.398438 10.429688 -32.675781 10.015625 -33.03125 C 10.015625 -33.125 10.015625 -33.171875 10.015625 -33.171875 C 9.816406 -33.304688 9.640625 -33.4375 9.484375 -33.5625 C 9.285156 -33.851562 9.070312 -34.078125 8.84375 -34.234375 C 8.007812 -34.847656 7.164062 -35.035156 6.3125 -34.796875 C 5.457031 -34.554688 4.820312 -33.90625 4.40625 -32.84375 C 4.113281 -32 3.96875 -31.144531 3.96875 -30.28125 C 4.03125 -29.207031 4.269531 -28.175781 4.6875 -27.1875 C 4.976562 -26.570312 5.238281 -26.003906 5.46875 -25.484375 C 6.007812 -24.066406 6.457031 -23.09375 6.8125 -22.5625 C 7.164062 -22.03125 7.59375 -21.800781 8.09375 -21.875 C 8.59375 -21.957031 13.164062 -23.597656 21.8125 -26.796875 C 23.675781 -27.410156 24.207031 -26.648438 23.40625 -24.515625 Z M 2.46875 -6.046875 C 4.726562 -6.816406 5.675781 -8.332031 5.3125 -10.59375 C 5.3125 -10.75 5.28125 -10.925781 5.21875 -11.125 C 5.09375 -12.351562 4.835938 -13.296875 4.453125 -13.953125 C 4.066406 -14.609375 3.195312 -14.582031 1.84375 -13.875 C -1.507812 -11.976562 -4.609375 -9.753906 -7.453125 -7.203125 C -7.640625 -6.984375 -7.816406 -6.773438 -7.984375 -6.578125 C -7.984375 -6.578125 -8.015625 -6.53125 -8.078125 -6.4375 C -8.265625 -6.175781 -8.296875 -5.882812 -8.171875 -5.5625 C -8.046875 -5.238281 -7.753906 -5.078125 -7.296875 -5.078125 C -3.984375 -4.554688 -0.726562 -4.878906 2.46875 -6.046875 Z M 2.46875 -6.046875 "/></g></g></g><g fill="#282642" fill-opacity="1"><g transform="translate(236.862916, 226.351407)"><g><path d="M 27.5625 -18.5625 C 25.695312 -16.726562 23.519531 -15.15625 21.03125 -13.84375 C 18.550781 -12.539062 16.472656 -11.6875 14.796875 -11.28125 C 13.117188 -10.882812 11.394531 -10.65625 9.625 -10.59375 C 6.789062 -10.457031 4.179688 -10.84375 1.796875 -11.75 C -2.109375 -13.332031 -3.460938 -16.347656 -2.265625 -20.796875 C -1.140625 -24.628906 1.144531 -27.625 4.59375 -29.78125 C 8.039062 -31.945312 11.601562 -33 15.28125 -32.9375 C 15.28125 -32.9375 15.3125 -32.9375 15.375 -32.9375 C 16.3125 -33 17.203125 -32.929688 18.046875 -32.734375 C 19.460938 -32.222656 20.363281 -31.382812 20.75 -30.21875 C 21.132812 -29.0625 20.875 -27.773438 19.96875 -26.359375 C 17.90625 -23.234375 15.101562 -21.492188 11.5625 -21.140625 C 9.207031 -20.910156 6.929688 -21.019531 4.734375 -21.46875 C 4.316406 -21.53125 3.945312 -21.414062 3.625 -21.125 C 3.300781 -20.84375 3.109375 -20.492188 3.046875 -20.078125 C 2.398438 -17.296875 3.253906 -15.519531 5.609375 -14.75 C 8.515625 -13.75 11.53125 -13.75 14.65625 -14.75 C 18.269531 -15.875 21.703125 -18 24.953125 -21.125 C 28.210938 -24.257812 30.09375 -25.722656 30.59375 -25.515625 C 31.09375 -25.304688 31.242188 -24.703125 31.046875 -23.703125 C 30.597656 -22.117188 29.4375 -20.40625 27.5625 -18.5625 Z M 6.96875 -26.359375 C 6.769531 -26.128906 6.628906 -25.878906 6.546875 -25.609375 C 6.472656 -25.335938 6.582031 -25.085938 6.875 -24.859375 C 8 -24.210938 9.222656 -23.976562 10.546875 -24.15625 C 11.867188 -24.332031 12.988281 -24.832031 13.90625 -25.65625 C 14.820312 -26.476562 15.21875 -27.484375 15.09375 -28.671875 C 14.988281 -29.097656 14.757812 -29.363281 14.40625 -29.46875 C 14.050781 -29.582031 13.695312 -29.609375 13.34375 -29.546875 C 10.957031 -29.128906 8.832031 -28.066406 6.96875 -26.359375 Z M 6.96875 -26.359375 "/></g></g></g><g fill="#282642" fill-opacity="1"><g transform="translate(265.004127, 226.351407)"><g><path d="M 27.5625 -18.5625 C 25.695312 -16.726562 23.519531 -15.15625 21.03125 -13.84375 C 18.550781 -12.539062 16.472656 -11.6875 14.796875 -11.28125 C 13.117188 -10.882812 11.394531 -10.65625 9.625 -10.59375 C 6.789062 -10.457031 4.179688 -10.84375 1.796875 -11.75 C -2.109375 -13.332031 -3.460938 -16.347656 -2.265625 -20.796875 C -1.140625 -24.628906 1.144531 -27.625 4.59375 -29.78125 C 8.039062 -31.945312 11.601562 -33 15.28125 -32.9375 C 15.28125 -32.9375 15.3125 -32.9375 15.375 -32.9375 C 16.3125 -33 17.203125 -32.929688 18.046875 -32.734375 C 19.460938 -32.222656 20.363281 -31.382812 20.75 -30.21875 C 21.132812 -29.0625 20.875 -27.773438 19.96875 -26.359375 C 17.90625 -23.234375 15.101562 -21.492188 11.5625 -21.140625 C 9.207031 -20.910156 6.929688 -21.019531 4.734375 -21.46875 C 4.316406 -21.53125 3.945312 -21.414062 3.625 -21.125 C 3.300781 -20.84375 3.109375 -20.492188 3.046875 -20.078125 C 2.398438 -17.296875 3.253906 -15.519531 5.609375 -14.75 C 8.515625 -13.75 11.53125 -13.75 14.65625 -14.75 C 18.269531 -15.875 21.703125 -18 24.953125 -21.125 C 28.210938 -24.257812 30.09375 -25.722656 30.59375 -25.515625 C 31.09375 -25.304688 31.242188 -24.703125 31.046875 -23.703125 C 30.597656 -22.117188 29.4375 -20.40625 27.5625 -18.5625 Z M 6.96875 -26.359375 C 6.769531 -26.128906 6.628906 -25.878906 6.546875 -25.609375 C 6.472656 -25.335938 6.582031 -25.085938 6.875 -24.859375 C 8 -24.210938 9.222656 -23.976562 10.546875 -24.15625 C 11.867188 -24.332031 12.988281 -24.832031 13.90625 -25.65625 C 14.820312 -26.476562 15.21875 -27.484375 15.09375 -28.671875 C 14.988281 -29.097656 14.757812 -29.363281 14.40625 -29.46875 C 14.050781 -29.582031 13.695312 -29.609375 13.34375 -29.546875 C 10.957031 -29.128906 8.832031 -28.066406 6.96875 -26.359375 Z M 6.96875 -26.359375 "/></g></g></g><g fill="#282642" fill-opacity="1"><g transform="translate(293.145337, 226.351407)"><g><path d="M 24.765625 -76.796875 C 24.921875 -77.054688 25.265625 -77.273438 25.796875 -77.453125 C 26.328125 -77.628906 26.875 -77.753906 27.4375 -77.828125 C 28.007812 -77.910156 28.503906 -77.894531 28.921875 -77.78125 C 29.335938 -77.675781 29.515625 -77.476562 29.453125 -77.1875 C 29.097656 -75.707031 28.566406 -74.253906 27.859375 -72.828125 C 27.796875 -72.640625 27.679688 -72.398438 27.515625 -72.109375 C 24.835938 -65.921875 22.113281 -59.78125 19.34375 -53.6875 C 18.925781 -52.78125 18.539062 -51.890625 18.1875 -51.015625 C 17.1875 -48.953125 15.941406 -46.441406 14.453125 -43.484375 C 12.816406 -40.347656 11.398438 -37.476562 10.203125 -34.875 C 11.328125 -36.226562 12.742188 -37.21875 14.453125 -37.84375 C 16.171875 -38.46875 17.476562 -38.78125 18.375 -38.78125 C 21.789062 -38.71875 23.675781 -37.023438 24.03125 -33.703125 C 24.582031 -29.929688 23.90625 -26.09375 22 -22.1875 C 20.101562 -18.289062 17.585938 -15.101562 14.453125 -12.625 C 11.816406 -11.132812 9.3125 -10.476562 6.9375 -10.65625 C 4.570312 -10.84375 2.46875 -12 0.625 -14.125 C 0.40625 -14.125 0.175781 -14.019531 -0.0625 -13.8125 C -0.3125 -13.601562 -0.582031 -13.351562 -0.875 -13.0625 C -1.226562 -12.632812 -1.613281 -12.3125 -2.03125 -12.09375 C -2.320312 -11.957031 -2.628906 -11.921875 -2.953125 -11.984375 C -3.273438 -12.054688 -3.53125 -12.15625 -3.71875 -12.28125 C -4.425781 -12.863281 -4.65625 -13.570312 -4.40625 -14.40625 C -1.695312 -21.5 1.484375 -28.882812 5.140625 -36.5625 C 8.804688 -44.238281 12.476562 -51.71875 16.15625 -59 C 17.695312 -62.257812 19.226562 -65.421875 20.75 -68.484375 C 21.363281 -69.671875 21.957031 -70.910156 22.53125 -72.203125 C 23.238281 -73.691406 23.984375 -75.222656 24.765625 -76.796875 Z M 12.625 -32.9375 C 10.144531 -31.164062 8 -29.003906 6.1875 -26.453125 C 4.382812 -23.910156 3.738281 -21.21875 4.25 -18.375 C 4.507812 -16.726562 5.171875 -15.566406 6.234375 -14.890625 C 7.296875 -14.210938 8.539062 -14.457031 9.96875 -15.625 C 11.382812 -16.945312 12.800781 -18.601562 14.21875 -20.59375 C 15.632812 -22.59375 16.78125 -24.722656 17.65625 -26.984375 C 18.363281 -28.984375 18.789062 -30.722656 18.9375 -32.203125 C 19.082031 -33.691406 18.6875 -34.597656 17.75 -34.921875 C 16.8125 -35.242188 15.101562 -34.582031 12.625 -32.9375 Z M 12.625 -32.9375 "/></g></g></g><g fill="#ff4c60" fill-opacity="1"><g transform="translate(177.647263, 254.931457)"><g><path d="M 31.453125 -19.296875 L 25.140625 0 L 20.34375 0 L 16.09375 -13.0625 L 11.71875 0 L 6.953125 0 L 0.609375 -19.296875 L 5.234375 -19.296875 L 9.59375 -5.734375 L 14.140625 -19.296875 L 18.28125 -19.296875 L 22.6875 -5.625 L 27.171875 -19.296875 Z M 31.453125 -19.296875 "/></g></g></g><g fill="#ff4c60" fill-opacity="1"><g transform="translate(229.400028, 254.931457)"><g><path d="M 11.625 0.328125 C 9.625 0.328125 7.816406 -0.101562 6.203125 -0.96875 C 4.597656 -1.832031 3.34375 -3.019531 2.4375 -4.53125 C 1.53125 -6.050781 1.078125 -7.753906 1.078125 -9.640625 C 1.078125 -11.535156 1.53125 -13.238281 2.4375 -14.75 C 3.34375 -16.269531 4.597656 -17.460938 6.203125 -18.328125 C 7.816406 -19.191406 9.625 -19.625 11.625 -19.625 C 13.632812 -19.625 15.4375 -19.191406 17.03125 -18.328125 C 18.632812 -17.460938 19.894531 -16.269531 20.8125 -14.75 C 21.726562 -13.238281 22.1875 -11.535156 22.1875 -9.640625 C 22.1875 -7.753906 21.726562 -6.050781 20.8125 -4.53125 C 19.894531 -3.019531 18.632812 -1.832031 17.03125 -0.96875 C 15.4375 -0.101562 13.632812 0.328125 11.625 0.328125 Z M 11.625 -3.46875 C 12.769531 -3.46875 13.800781 -3.726562 14.71875 -4.25 C 15.632812 -4.78125 16.351562 -5.515625 16.875 -6.453125 C 17.40625 -7.390625 17.671875 -8.453125 17.671875 -9.640625 C 17.671875 -10.835938 17.40625 -11.90625 16.875 -12.84375 C 16.351562 -13.78125 15.632812 -14.507812 14.71875 -15.03125 C 13.800781 -15.5625 12.769531 -15.828125 11.625 -15.828125 C 10.488281 -15.828125 9.460938 -15.5625 8.546875 -15.03125 C 7.628906 -14.507812 6.90625 -13.78125 6.375 -12.84375 C 5.851562 -11.90625 5.59375 -10.835938 5.59375 -9.640625 C 5.59375 -8.453125 5.851562 -7.390625 6.375 -6.453125 C 6.90625 -5.515625 7.628906 -4.78125 8.546875 -4.25 C 9.460938 -3.726562 10.488281 -3.46875 11.625 -3.46875 Z M 11.625 -3.46875 "/></g></g></g><g fill="#ff4c60" fill-opacity="1"><g transform="translate(272.364656, 254.931457)"><g><path d="M 14.578125 0 L 10.859375 -5.375 L 6.75 -5.375 L 6.75 0 L 2.28125 0 L 2.28125 -19.296875 L 10.640625 -19.296875 C 12.347656 -19.296875 13.832031 -19.007812 15.09375 -18.4375 C 16.351562 -17.863281 17.320312 -17.050781 18 -16 C 18.675781 -14.957031 19.015625 -13.722656 19.015625 -12.296875 C 19.015625 -10.859375 18.671875 -9.617188 17.984375 -8.578125 C 17.296875 -7.546875 16.316406 -6.753906 15.046875 -6.203125 L 19.375 0 Z M 14.5 -12.296875 C 14.5 -13.378906 14.148438 -14.207031 13.453125 -14.78125 C 12.753906 -15.363281 11.734375 -15.65625 10.390625 -15.65625 L 6.75 -15.65625 L 6.75 -8.9375 L 10.390625 -8.9375 C 11.734375 -8.9375 12.753906 -9.226562 13.453125 -9.8125 C 14.148438 -10.394531 14.5 -11.222656 14.5 -12.296875 Z M 14.5 -12.296875 "/></g></g></g><g fill="#ff4c60" fill-opacity="1"><g transform="translate(312.326417, 254.931457)"><g><path d="M 9.3125 -7.578125 L 6.71875 -4.875 L 6.71875 0 L 2.28125 0 L 2.28125 -19.296875 L 6.71875 -19.296875 L 6.71875 -10.28125 L 15.265625 -19.296875 L 20.234375 -19.296875 L 12.234375 -10.6875 L 20.703125 0 L 15.484375 0 Z M 9.3125 -7.578125 "/></g></g></g><g fill="#ff4c60" fill-opacity="1"><g transform="translate(352.425939, 254.931457)"><g><path d="M 8.625 0.328125 C 7.101562 0.328125 5.628906 0.125 4.203125 -0.28125 C 2.773438 -0.695312 1.628906 -1.238281 0.765625 -1.90625 L 2.28125 -5.265625 C 3.113281 -4.660156 4.097656 -4.171875 5.234375 -3.796875 C 6.378906 -3.429688 7.519531 -3.25 8.65625 -3.25 C 9.925781 -3.25 10.863281 -3.4375 11.46875 -3.8125 C 12.070312 -4.1875 12.375 -4.6875 12.375 -5.3125 C 12.375 -5.78125 12.191406 -6.164062 11.828125 -6.46875 C 11.472656 -6.769531 11.015625 -7.007812 10.453125 -7.1875 C 9.898438 -7.375 9.144531 -7.578125 8.1875 -7.796875 C 6.71875 -8.148438 5.515625 -8.5 4.578125 -8.84375 C 3.640625 -9.195312 2.832031 -9.757812 2.15625 -10.53125 C 1.488281 -11.300781 1.15625 -12.328125 1.15625 -13.609375 C 1.15625 -14.734375 1.457031 -15.75 2.0625 -16.65625 C 2.675781 -17.570312 3.59375 -18.296875 4.8125 -18.828125 C 6.03125 -19.359375 7.519531 -19.625 9.28125 -19.625 C 10.519531 -19.625 11.722656 -19.476562 12.890625 -19.1875 C 14.066406 -18.894531 15.097656 -18.472656 15.984375 -17.921875 L 14.609375 -14.53125 C 12.828125 -15.539062 11.046875 -16.046875 9.265625 -16.046875 C 8.015625 -16.046875 7.085938 -15.84375 6.484375 -15.4375 C 5.890625 -15.03125 5.59375 -14.5 5.59375 -13.84375 C 5.59375 -13.175781 5.9375 -12.679688 6.625 -12.359375 C 7.3125 -12.035156 8.363281 -11.71875 9.78125 -11.40625 C 11.25 -11.0625 12.453125 -10.710938 13.390625 -10.359375 C 14.328125 -10.015625 15.128906 -9.460938 15.796875 -8.703125 C 16.472656 -7.953125 16.8125 -6.9375 16.8125 -5.65625 C 16.8125 -4.550781 16.503906 -3.539062 15.890625 -2.625 C 15.273438 -1.71875 14.347656 -1 13.109375 -0.46875 C 11.878906 0.0625 10.382812 0.328125 8.625 0.328125 Z M 8.625 0.328125 "/></g></g></g></svg>